<svg version="1.1" id="Layer_1" xmlns="http://www.w3.org/2000/svg" xmlns:xlink="http://www.w3.org/1999/xlink" x="0px" y="0px"
	 width="100%" viewBox="0 0 624 624" enable-background="new 0 0 624 624" xml:space="preserve">
<path fill="#000000" opacity="1.000000" stroke="none" 
	d="
M423.685394,147.821716 
	C427.430450,146.935303 426.978668,149.839554 427.162689,151.463593 
	C429.878021,175.426285 432.974274,199.410828 430.212219,223.573196 
	C428.424866,239.209000 425.471039,254.565079 414.965271,267.247650 
	C405.504791,278.668335 391.214172,283.108826 378.269745,278.506439 
	C367.306824,274.608521 361.407623,264.898651 362.752197,252.965118 
	C363.992340,241.958527 373.145538,232.093140 383.517944,230.903824 
	C389.313873,230.239243 394.584625,231.802414 398.139282,236.685181 
	C401.551086,241.371658 402.265472,246.632294 400.239563,252.345718 
	C397.813416,251.542435 397.652985,249.495911 396.791199,248.029114 
	C393.088043,241.726196 385.360565,240.240417 379.642181,244.791962 
	C373.983978,249.295624 372.169586,256.427246 375.247345,262.066437 
	C378.560211,268.136414 386.853302,270.684723 394.619720,267.958771 
	C401.926514,265.394165 406.924774,260.218628 410.589722,253.594376 
	C416.966888,242.067734 418.817017,229.354477 419.509674,216.538925 
	C420.373352,200.559326 419.417023,184.579742 417.710114,168.661316 
	C417.604370,167.675049 417.612823,166.641556 415.736633,165.303741 
	C367.030090,194.449173 333.110046,235.261597 317.752625,291.220367 
	C317.752625,286.954712 317.354675,282.645477 317.816315,278.430389 
	C321.146423,248.024261 334.487488,222.261642 354.744324,199.776474 
	C374.281403,178.090271 397.569641,161.366943 423.685394,147.821716 
z"/>
<path fill="#000000" opacity="1.000000" stroke="none" 
	d="
M276.935516,204.078751 
	C298.066650,229.120834 310.547424,257.083344 309.681274,290.250244 
	C294.543610,234.978378 260.857635,194.437256 212.124969,165.257111 
	C211.417496,166.195435 210.769608,166.661972 210.701050,167.202057 
	C207.436203,192.917755 205.943542,218.614288 213.346817,243.922836 
	C216.125504,253.421936 221.096710,261.638947 230.186371,266.600616 
	C239.644440,271.763428 250.720413,268.491486 253.774551,259.673798 
	C255.720795,254.054749 251.369644,245.482162 245.272491,242.923141 
	C239.766953,240.612411 233.868759,243.097214 230.640533,249.031723 
	C229.954041,250.293732 229.894913,251.965561 228.000916,252.941284 
	C225.546921,247.117752 226.486649,241.722183 229.767395,236.828415 
	C233.031937,231.958832 238.138275,230.263336 243.776031,230.903351 
	C256.794128,232.381226 265.728516,243.655426 265.323364,257.744629 
	C264.977081,269.788300 255.465363,279.292084 242.742737,280.275055 
	C231.274780,281.161133 221.838959,276.874390 214.225739,268.557068 
	C204.212433,257.617676 200.844315,243.922516 198.684357,229.775818 
	C194.999207,205.639679 197.121582,181.647781 200.424026,157.684937 
	C200.892548,154.285416 200.369553,150.666367 202.769318,147.091354 
	C230.950607,161.463684 256.169861,179.543945 276.935516,204.078751 
z"/>
<path fill="#000000" opacity="1.000000" stroke="none" 
	d="
M222.682602,348.966675 
	C225.849472,313.045898 241.334503,290.929749 270.976776,278.752563 
	C271.486145,281.119202 269.576447,281.938904 268.390686,283.066437 
	C253.318481,297.398254 240.864120,313.388733 235.975540,334.168701 
	C233.301224,345.536438 232.375198,357.071960 232.427094,368.302155 
	C233.583282,369.450165 234.413162,369.166504 235.152039,368.834229 
	C249.165741,362.531158 262.782745,355.571930 273.894775,344.639252 
	C277.612427,340.981628 280.574097,336.780212 282.108978,331.708282 
	C283.281738,327.832916 282.950012,324.114502 280.676697,320.716461 
	C278.942932,318.124969 276.719086,316.024536 273.311554,316.496765 
	C270.034729,316.950897 268.079590,319.229767 266.923279,322.181427 
	C265.611816,325.529083 267.206329,327.945618 269.626587,330.052155 
	C270.369293,330.698547 271.084717,331.376282 271.862915,332.085480 
	C265.632721,335.073364 259.647430,332.684723 257.571472,326.502197 
	C255.693710,320.909973 257.050171,315.896118 260.845612,311.665649 
	C265.009064,307.024994 270.497223,304.976868 276.613556,306.076538 
	C287.844971,308.095886 294.944641,319.375366 292.994537,330.854767 
	C291.054565,342.274536 284.390991,350.567383 275.777954,357.468597 
	C260.539581,369.678375 242.901489,377.553986 224.947769,384.777008 
	C224.513168,384.951813 223.969864,384.856445 222.565842,384.943756 
	C220.947464,373.087219 221.763474,361.260651 222.682602,348.966675 
z"/>
<path fill="#000000" opacity="1.000000" stroke="none" 
	d="
M385.847351,298.180664 
	C398.937714,312.968445 403.597046,330.549072 405.382233,349.317627 
	C406.331512,359.298035 406.226288,369.264832 406.083954,379.248291 
	C406.058655,381.023102 406.424591,382.928589 405.133118,384.619598 
	C404.709778,384.691681 404.162811,384.970062 403.775818,384.824158 
	C384.212860,377.450165 365.386078,368.713867 349.381958,354.887573 
	C342.546722,348.982513 337.496368,341.874695 335.386963,332.938934 
	C333.436768,324.677582 335.317291,317.303040 341.258728,311.297913 
	C346.324860,306.177399 352.478119,304.527130 359.588257,306.811432 
	C365.925720,308.847504 369.655731,313.077209 371.020142,319.457397 
	C373.058990,328.991760 366.004761,335.364166 356.725861,332.406830 
	C356.695465,330.967010 357.983124,330.576935 358.814941,329.861755 
	C361.190521,327.819275 362.240295,325.379272 361.120667,322.315674 
	C360.025391,319.318665 358.052429,317.120911 354.821686,316.494659 
	C351.558685,315.862183 349.434326,317.867645 347.720734,320.211182 
	C344.834625,324.158264 344.570465,328.471344 346.295410,333.004242 
	C348.618378,339.108521 352.803497,343.755310 357.626526,347.973053 
	C368.408203,357.401703 381.093048,363.467102 394.854462,369.752075 
	C397.579987,332.746765 383.909424,303.696411 357.221588,279.786011 
	C368.554596,283.254028 377.629364,289.729279 385.847351,298.180664 
z"/>
<path fill="#000000" opacity="1.000000" stroke="none" 
	d="
M149.894226,476.509583 
	C145.202606,475.771820 143.703415,472.948303 143.701263,468.987823 
	C143.693146,454.002777 143.628006,439.017303 143.728973,424.032959 
	C143.763367,418.929840 146.004929,416.788025 151.132767,416.715790 
	C158.790253,416.607880 166.450912,416.636414 174.109283,416.707886 
	C181.176605,416.773834 186.768555,419.504578 189.745789,426.229401 
	C192.608109,432.694641 190.783997,438.218933 185.925735,443.004639 
	C185.484055,443.439697 185.225784,444.060913 184.743668,444.811615 
	C188.800995,447.932343 192.884979,450.843262 193.338470,456.491302 
	C194.248779,467.828674 189.049393,474.876984 177.729401,476.147949 
	C168.649551,477.167389 159.470169,477.426056 149.894226,476.509583 
M172.592300,450.618988 
	C168.613129,450.529175 164.633011,450.468903 160.655121,450.339783 
	C157.713623,450.244232 156.398651,451.680267 156.388214,454.544281 
	C156.335434,469.033997 155.017563,466.473969 167.447281,466.685059 
	C168.938690,466.710419 170.466721,466.780762 171.918610,466.511383 
	C176.014816,465.751282 179.925415,464.342194 180.445877,459.508484 
	C180.981903,454.530457 178.063660,451.847168 172.592300,450.618988 
M164.681305,426.407410 
	C156.509125,426.463104 155.800613,427.239685 156.623657,435.289246 
	C156.725113,436.281464 156.868378,437.271332 157.039978,438.253967 
	C157.302750,439.758759 158.206543,440.679749 159.748093,440.668243 
	C163.900894,440.637299 168.106964,440.901337 172.189453,440.323944 
	C175.859161,439.804901 177.918182,437.109528 177.939072,433.245300 
	C177.958847,429.586884 175.707016,427.861847 172.419739,427.274841 
	C170.141937,426.868164 167.823486,426.689209 164.681305,426.407410 
z"/>
<path fill="#000000" opacity="1.000000" stroke="none" 
	d="
M378.376648,442.466370 
	C374.154602,443.501526 373.042755,446.568085 372.352905,449.965881 
	C371.014496,456.558197 371.508667,463.239380 371.364777,469.890076 
	C371.251678,475.118073 369.426788,477.459778 365.435425,477.305664 
	C360.842560,477.128387 359.665009,474.040466 359.657043,470.135559 
	C359.635986,459.809418 359.635681,449.483185 359.662476,439.157074 
	C359.669678,436.380035 360.223450,433.736298 363.064331,432.458862 
	C365.638702,431.301361 367.985016,432.011414 369.858185,434.048309 
	C371.407562,435.733093 372.739716,435.045898 374.194244,433.944305 
	C377.945831,431.102966 381.949738,431.507538 386.047577,433.084564 
	C392.563354,435.592072 396.924469,432.952087 397.771484,426.020508 
	C398.534058,419.779846 401.795654,416.387787 408.076416,415.827545 
	C411.529541,415.519531 415.068939,415.170166 418.473114,416.384583 
	C420.882996,417.244232 422.718994,418.697144 422.077545,421.525848 
	C421.460022,424.248962 419.416473,425.139557 416.730347,424.759064 
	C415.748810,424.620056 414.718506,424.424408 413.762787,424.578705 
	C410.750092,425.065063 409.750366,427.352478 409.528168,429.991821 
	C409.304840,432.644073 411.448883,432.650421 413.262451,432.943420 
	C415.901917,433.369812 418.259918,434.250031 418.191132,437.490082 
	C418.127869,440.470917 416.074829,441.365784 413.456635,441.466034 
	C410.271332,441.587952 409.251251,443.363098 409.303619,446.397247 
	C409.430054,453.723511 409.376251,461.053406 409.349701,468.381653 
	C409.325592,475.038330 407.739594,477.387299 403.406128,477.344696 
	C399.265259,477.303986 397.700897,474.820068 397.673462,468.118408 
	C397.645477,461.289825 397.736877,454.459930 397.634338,447.632721 
	C397.548828,441.937500 393.690704,439.708771 388.898407,442.717651 
	C385.302643,444.975311 382.129944,442.191284 378.376648,442.466370 
z"/>
<path fill="#000000" opacity="1.000000" stroke="none" 
	d="
M323.456146,465.548035 
	C328.884338,470.071442 333.860809,470.224976 339.070343,466.270508 
	C340.528198,465.163849 341.880890,463.915131 343.365570,462.848145 
	C345.298004,461.459381 347.432800,461.081848 349.321869,462.776520 
	C351.279633,464.532898 350.717468,466.758759 349.684906,468.743134 
	C349.005951,470.047882 348.101257,471.359802 346.983337,472.291260 
	C339.784485,478.288849 331.443298,478.727173 322.907776,476.425690 
	C315.063965,474.310822 310.538635,468.561523 309.220764,460.777710 
	C307.663269,451.578308 308.212158,442.397186 316.495422,436.298218 
	C324.356964,430.509766 333.185425,430.011902 341.951447,434.643127 
	C347.699921,437.680145 350.651642,442.815338 351.266174,449.136963 
	C351.859558,455.240906 349.503113,457.803833 343.347198,458.024841 
	C338.024261,458.215912 332.690521,458.105988 327.361572,458.131042 
	C320.512390,458.163239 319.939392,459.148926 323.456146,465.548035 
M328.292908,440.825867 
	C324.973724,441.734222 322.873108,443.920776 321.742554,447.105347 
	C321.163879,448.735474 321.263306,450.337158 323.315918,450.470398 
	C328.528076,450.808746 333.772095,451.163330 338.957520,450.236908 
	C338.251007,443.107758 335.764038,440.845215 328.292908,440.825867 
z"/>
<path fill="#000000" opacity="1.000000" stroke="none" 
	d="
M453.477386,465.418579 
	C450.260590,457.327148 447.167877,449.599792 444.145111,441.845184 
	C443.299561,439.676086 442.427979,437.410065 443.716522,435.110107 
	C444.859711,433.069519 446.654877,431.931976 449.031250,431.994019 
	C451.696259,432.063599 453.351868,433.639587 454.206818,436.010468 
	C456.689819,442.896179 459.063599,449.821259 461.548187,456.706360 
	C462.144806,458.359619 462.334747,460.257233 464.410217,461.919006 
	C467.010559,454.663879 469.511444,447.671906 472.024567,440.684357 
	C472.644073,438.961853 473.220001,437.216614 473.963074,435.547333 
	C475.185059,432.802185 477.210999,431.243195 480.325226,432.204742 
	C483.572113,433.207214 484.930634,435.715363 483.978546,438.834747 
	C482.426605,443.919495 480.487122,448.890350 478.604279,453.868835 
	C474.837433,463.828888 471.250793,473.868134 467.114960,483.674469 
	C463.302582,492.713959 455.808533,495.915222 446.335907,493.369476 
	C443.617859,492.639008 441.693695,491.216248 441.948029,488.216522 
	C442.213409,485.086670 444.557159,484.224304 447.302704,484.185364 
	C455.763611,484.065338 458.839233,479.451385 455.816559,471.348541 
	C455.118774,469.477966 454.359100,467.630493 453.477386,465.418579 
z"/>
<path fill="#000000" opacity="1.000000" stroke="none" 
	d="
M203.241898,469.358826 
	C200.682114,458.624390 201.914841,448.127686 202.114502,437.686066 
	C202.176987,434.419556 204.224121,431.999664 207.871765,431.983582 
	C211.746918,431.966492 213.735306,434.429047 213.889023,437.973114 
	C214.177277,444.618286 214.014343,451.281647 214.155884,457.934967 
	C214.298340,464.630646 216.414108,467.672333 220.819382,467.835754 
	C225.606506,468.013336 228.958237,464.276825 229.902130,458.482483 
	C230.933380,452.151886 229.756958,445.857574 230.109802,439.554688 
	C230.283737,436.447449 230.744247,433.492828 234.185989,432.253937 
	C238.021622,430.873230 241.878098,433.376801 242.011307,438.111237 
	C242.329453,449.418854 242.201996,460.741150 242.112900,472.056427 
	C242.093323,474.541382 240.815933,476.544250 238.188721,477.230743 
	C235.722748,477.875092 233.567764,477.431763 232.034836,475.173492 
	C231.484863,474.363312 230.882858,473.588409 230.324036,472.824005 
	C216.274673,479.823212 208.755753,478.927856 203.241898,469.358826 
z"/>
<path fill="#000000" opacity="1.000000" stroke="none" 
	d="
M268.838562,442.003723 
	C266.326050,442.567627 266.115570,444.232422 266.109711,445.958374 
	C266.090576,451.621185 266.136932,457.284332 266.103424,462.947021 
	C266.082520,466.482269 267.565521,468.237915 271.285553,467.797424 
	C274.427002,467.425446 277.788300,467.422180 277.997528,471.619568 
	C278.185333,475.386475 274.995667,476.508087 271.965729,477.108307 
	C269.862671,477.524933 267.655853,477.673248 265.511322,477.579132 
	C257.857208,477.243225 254.544495,474.239990 254.076569,466.597717 
	C253.680191,460.124054 253.828094,453.613281 253.853760,447.119415 
	C253.864349,444.440948 253.393326,442.578949 250.553284,441.182617 
	C246.699280,439.287811 246.661194,435.337250 250.519821,433.585571 
	C253.723679,432.131134 253.860748,429.988708 253.896149,427.225769 
	C253.989197,419.961121 255.773697,417.102203 260.007751,417.107086 
	C264.166718,417.111877 265.855743,419.980804 266.093597,427.332489 
	C266.171814,429.750458 265.550690,432.595520 269.335663,432.937988 
	C271.987213,433.177887 274.503876,433.975250 274.605591,437.145111 
	C274.716919,440.615112 271.950043,441.359680 268.838562,442.003723 
z"/>
<path fill="#000000" opacity="1.000000" stroke="none" 
	d="
M295.301910,429.438629 
	C295.487579,432.603668 297.617828,432.765350 299.598389,433.090942 
	C302.021484,433.489319 303.696198,434.779633 303.735962,437.306335 
	C303.777313,439.933777 301.983337,441.220886 299.556030,441.311951 
	C295.964630,441.446716 295.186249,443.502533 295.247589,446.609344 
	C295.355865,452.096893 295.333435,457.589111 295.249420,463.077606 
	C295.192963,466.767059 296.865662,468.303864 300.488281,467.739532 
	C303.463043,467.276093 306.569702,467.132904 307.133301,470.944550 
	C307.738312,475.036041 304.536560,476.557098 301.305389,477.019989 
	C298.052216,477.486084 294.627350,477.530579 291.378662,477.061157 
	C286.960144,476.422699 284.492249,473.409058 283.692139,469.003693 
	C282.431732,462.064087 283.066010,455.065918 282.996338,448.091980 
	C282.965424,444.999023 282.854431,442.505737 279.275177,440.855621 
	C275.585663,439.154694 275.741516,435.480682 279.449127,433.740845 
	C282.440735,432.336914 283.223328,430.337738 283.038788,427.440277 
	C282.986023,426.612366 283.009918,425.775330 283.058441,424.945953 
	C283.370667,419.608246 285.585907,416.787964 289.467285,417.155853 
	C294.194641,417.603912 295.202820,421.015076 295.236938,425.028046 
	C295.248230,426.358765 295.261200,427.689453 295.301910,429.438629 
z"/>
<path fill="#000000" opacity="1.000000" stroke="none" 
	d="
M324.469147,198.396118 
	C322.805664,202.881714 323.140686,207.515823 320.778809,212.314651 
	C318.653290,207.702316 319.435120,203.644806 319.840332,199.919586 
	C321.571136,184.006973 325.917786,168.875381 335.425201,155.698151 
	C341.074677,147.868042 348.367157,142.846436 358.651886,143.679947 
	C365.090118,144.201706 369.772522,147.299362 372.104401,153.227036 
	C374.570007,159.494507 374.220490,165.804657 369.606537,171.064743 
	C365.374908,175.888931 359.846313,177.161850 353.689758,175.219284 
	C349.161713,173.790558 346.238770,170.845169 345.733612,165.990143 
	C345.460754,163.367966 346.283813,160.911758 348.543152,159.417923 
	C350.784180,157.936172 353.199738,157.770523 355.330902,159.842102 
	C353.314301,165.734375 354.603180,168.770477 358.935425,168.482208 
	C363.322876,168.190262 367.239746,162.553726 366.034546,158.266190 
	C364.427917,152.550339 359.626556,149.851654 353.579071,151.472214 
	C349.457428,152.576721 346.068970,154.975555 343.205627,158.122131 
	C334.198639,168.020081 329.980591,180.294159 326.057007,192.710632 
	C325.505615,194.455536 325.063110,196.234833 324.469147,198.396118 
z"/>
<path fill="#000000" opacity="1.000000" stroke="none" 
	d="
M307.249207,211.596283 
	C305.534271,206.327118 304.211456,201.065979 302.778870,195.834930 
	C299.603241,184.239075 295.649261,172.965515 288.884399,162.876862 
	C285.561127,157.920700 281.413666,153.877640 275.745819,151.798950 
	C271.955688,150.408905 268.077301,150.624908 264.938263,153.462006 
	C262.481781,155.682175 261.232025,158.564911 262.120605,162.015472 
	C262.245026,162.498535 262.360474,162.989670 262.546783,163.450089 
	C264.089417,167.262070 268.557800,169.270523 271.998993,167.578217 
	C276.234222,165.495377 273.686096,162.699219 272.340302,160.030243 
	C274.686523,158.002686 277.034271,157.976761 279.286743,159.461441 
	C281.933228,161.205795 282.687347,163.916183 282.100555,166.932251 
	C281.165894,171.736191 277.976929,174.374435 273.400146,175.498032 
	C267.571838,176.928864 262.437164,175.578644 258.421417,171.095718 
	C253.483765,165.583633 253.187729,156.510696 257.488129,150.168060 
	C261.400726,144.397400 269.974854,141.937698 277.729614,144.366806 
	C285.871429,146.917160 291.283997,152.753769 295.354919,159.798187 
	C304.189606,175.085953 308.792725,191.574631 308.316711,209.336929 
	C308.296173,210.103210 307.843140,210.857895 307.249207,211.596283 
z"/>
<path fill="#000000" opacity="1.000000" stroke="none" 
	d="
M436.279297,429.056580 
	C436.275970,442.174255 436.279144,454.800690 436.256134,467.427063 
	C436.253113,469.084137 436.308868,470.777771 436.000977,472.390228 
	C435.358398,475.755615 433.335236,477.794525 429.739441,477.435303 
	C426.195312,477.081238 424.513702,474.805511 424.503754,471.329987 
	C424.473389,460.700806 424.513794,450.071350 424.475006,439.442200 
	C424.456848,434.464417 424.422333,429.482697 424.209442,424.510681 
	C423.980133,419.155151 426.029358,415.888641 430.008575,415.705902 
	C433.999451,415.522675 436.126862,418.358795 436.263306,424.079712 
	C436.298920,425.574158 436.274506,427.070038 436.279297,429.056580 
z"/>
<path fill="#000000" opacity="1.000000" stroke="none" 
	d="
M288.061157,492.975098 
	C288.469330,490.261139 286.915955,486.564667 290.120941,486.222351 
	C293.481842,485.863312 292.493744,489.836060 293.250763,491.946228 
	C293.967224,493.943420 294.299988,496.078278 295.688690,498.272858 
	C296.409302,495.195282 297.108795,492.112549 297.859894,489.042419 
	C298.210083,487.611053 298.417389,485.854950 300.467896,486.035614 
	C302.322845,486.199066 302.157898,487.855469 302.167480,489.123047 
	C302.213989,495.264954 302.205322,501.407654 302.162079,507.549683 
	C302.152985,508.839935 302.234863,510.294586 300.306580,510.817047 
	C297.591095,509.723541 299.406403,507.052673 298.414429,505.225708 
	C296.588043,506.226715 298.346466,510.325348 295.088043,509.918304 
	C292.615662,509.609436 293.217987,506.791046 292.486542,504.954834 
	C291.377686,506.951263 293.550140,510.825073 290.056854,510.652863 
	C286.908295,510.497620 288.244324,506.967438 288.137451,504.871094 
	C287.943420,501.065552 288.072998,497.243530 288.061157,492.975098 
z"/>
<path fill="#000000" opacity="1.000000" stroke="none" 
	d="
M339.793884,492.298859 
	C340.079285,493.018829 340.274658,493.451996 340.655792,494.296967 
	C340.790405,492.047821 340.851471,490.242828 341.022461,488.448364 
	C341.134918,487.268158 341.422974,486.057953 342.949097,486.012146 
	C344.496704,485.965607 344.936859,487.149414 344.938721,488.344574 
	C344.948608,494.641113 344.917175,500.938843 344.785797,507.233734 
	C344.753784,508.767120 344.219910,510.161713 342.207733,510.252289 
	C339.403412,510.378510 339.099396,508.334137 338.569458,505.902618 
	C337.855164,507.607910 338.721954,510.130859 336.241394,510.030396 
	C333.890839,509.935242 334.068237,507.830902 334.051422,506.250549 
	C333.995209,500.955383 334.020874,495.657684 334.131409,490.363373 
	C334.167267,488.646332 333.708862,486.279510 336.224457,485.969391 
	C339.165863,485.606720 338.949188,488.181213 339.322754,490.062836 
	C339.451691,490.712189 339.576965,491.362274 339.793884,492.298859 
z"/>
<path fill="#000000" opacity="1.000000" stroke="none" 
	d="
M307.762390,492.131134 
	C307.981598,489.019836 306.886963,485.677826 311.509094,485.675507 
	C316.090607,485.673218 315.568634,488.884308 316.510040,491.989471 
	C318.667297,499.105164 312.658691,503.322845 311.394012,509.133606 
	C311.207520,509.990540 310.164825,510.213745 309.311371,509.901642 
	C307.980194,509.414825 307.857391,508.179779 307.843414,507.020355 
	C307.785400,502.218079 307.783936,497.415100 307.762390,492.131134 
z"/>
<path fill="#000000" opacity="1.000000" stroke="none" 
	d="
M327.762665,489.092316 
	C328.681641,495.561859 329.514893,501.657593 330.306274,507.758698 
	C330.386658,508.378571 330.215118,509.031158 330.143585,509.865540 
	C325.153229,510.395325 327.939392,505.475281 325.599548,504.017517 
	C323.652374,504.612366 324.226562,506.613159 323.739716,508.000214 
	C323.332947,509.159088 322.899963,510.298645 321.373108,509.922852 
	C320.162292,509.624786 319.996918,508.497864 320.116058,507.508942 
	C320.891602,501.071838 321.740723,494.643585 322.553406,488.210876 
	C322.746643,486.681183 323.471222,485.827057 325.117371,485.758423 
	C327.296387,485.667480 327.390717,487.241760 327.762665,489.092316 
z"/>
<path fill="#000000" opacity="1.000000" stroke="none" 
	d="
M274.645508,493.690796 
	C274.705109,491.931610 274.629150,490.584961 274.855804,489.291321 
	C275.247955,487.053253 276.661652,485.815735 278.984619,485.778931 
	C281.139374,485.744812 282.641754,486.992798 282.881256,488.920227 
	C283.617889,494.848053 283.528564,500.829498 282.959808,506.764282 
	C282.753815,508.913605 281.059479,510.261322 278.749542,510.219452 
	C276.098511,510.171387 274.839844,508.418610 274.731323,506.043793 
	C274.550140,502.078583 274.659302,498.100098 274.645508,493.690796 
M279.585144,503.983459 
	C279.585144,499.779938 279.585144,495.576385 279.585144,491.372864 
	C277.951782,495.830505 278.192505,500.315125 278.583405,504.785156 
	C278.640594,505.439728 279.272827,505.078247 279.585144,503.983459 
z"/>
<path fill="#000000" opacity="1.000000" stroke="none" 
	d="
M270.835205,505.270721 
	C270.572571,508.509613 269.212311,510.439697 266.114655,510.201141 
	C262.685852,509.937103 261.934937,507.316956 261.876068,504.483490 
	C261.786438,500.169556 261.785736,495.850494 261.887177,491.536896 
	C261.959412,488.463715 262.916199,485.596985 266.616333,485.831451 
	C270.631653,486.085876 270.952698,489.110901 270.646851,492.089050 
	C268.997253,493.879486 267.764008,491.828491 266.247009,491.979462 
	C266.247009,496.276489 266.247009,500.406189 266.247009,504.687225 
	C267.701477,504.920532 269.576660,500.814911 270.835205,505.270721 
z"/>
<path fill="#000000" opacity="1.000000" stroke="none" 
	d="
M352.493866,499.097290 
	C352.640045,495.821136 351.121155,493.283325 350.669800,490.523956 
	C350.411438,488.944275 348.646729,486.661957 351.508392,486.005951 
	C354.150909,485.400146 353.911072,488.066010 354.505341,489.656097 
	C354.724304,490.241943 355.048737,490.788422 355.330994,491.364990 
	C357.576324,490.022888 356.062378,484.945587 359.521729,486.204315 
	C363.006500,487.472290 359.827301,490.738525 359.609985,493.090515 
	C359.156952,497.994049 356.630585,502.588654 357.428223,507.709625 
	C357.616943,508.921021 357.294830,510.084747 355.666718,510.083649 
	C354.077911,510.082581 353.835327,508.944427 353.768616,507.720184 
	C353.616577,504.930389 354.036804,502.059998 352.493866,499.097290 
z"/>
</svg>